<?xml version="1.0" encoding="UTF-8"?>
<!DOCTYPE svg PUBLIC "-//W3C//DTD SVG 1.1//EN" "http://www.w3.org/Graphics/SVG/1.1/DTD/svg11.dtd">
<!-- Creator: CorelDRAW X8 -->
<svg xmlns="http://www.w3.org/2000/svg" xml:space="preserve" width="923px" height="895px" version="1.1" style="shape-rendering:geometricPrecision; text-rendering:geometricPrecision; image-rendering:optimizeQuality; fill-rule:evenodd; clip-rule:evenodd"
viewBox="0 0 556 539"
 xmlns:xlink="http://www.w3.org/1999/xlink">
 <defs>
  <style type="text/css">
   <![CDATA[
    .fil0 {fill:#E6E7E8}
    .fil1 {fill:#002A6F}
    .fil2 {fill:#F4C325}
   ]]>
  </style>
 </defs>
 <g id="Camada_x0020_1">
  <metadata id="CorelCorpID_0Corel-Layer"/>
  <g id="_2120511095424">
   <rect class="fil0" width="556" height="539" rx="38" ry="38"/>
   <g>
    <g>
     <path id="Fill-11" class="fil1" d="M455 392l-61 -59c0,-1 -1,-1 -1,-2 10,-18 16,-40 16,-63 0,-73 -59,-132 -132,-132 -73,0 -132,59 -132,132 0,73 59,132 132,132 24,0 47,-7 66,-18 1,0 1,0 1,1l61 59c14,13 36,13 50,0 14,-14 14,-36 0,-50l0 0zm-178 -46c-43,0 -78,-35 -78,-78 0,-43 35,-78 78,-78 43,0 78,35 78,78 0,43 -35,78 -78,78z"/>
    </g>
    <path id="Fill-12" class="fil2" d="M513 263c0,-2 0,-4 0,-6 0,-2 0,-4 0,-5 0,-3 0,-5 -1,-7 0,-2 0,-3 0,-5 0,-2 -1,-5 -1,-7 0,-2 0,-3 -1,-4 0,-3 0,-5 -1,-8l-1 -3c0,-3 -1,-6 -2,-9l0 -3c-1,-3 -2,-5 -3,-8l-1 -3c0,-3 -1,-6 -2,-9l-1 -2c-1,-3 -2,-6 -4,-9l-1 -2c-1,-3 -2,-6 -3,-8l-2 -3c-1,-2 -2,-5 -4,-8l-1 -3c-1,-2 -3,-5 -4,-7l-2 -2c-5,-9 -15,-14 -25,-14 -6,0 -11,1 -16,4 -14,9 -18,27 -10,41l1 1c1,2 2,4 3,6l1 2c1,2 2,4 3,6l1 2c1,2 2,4 3,7l1 1c0,2 1,5 2,7l1 1c1,3 1,5 2,7l1 2c0,2 1,4 1,7l1 1c0,3 1,5 1,7l1 2c0,2 1,4 1,7l0 2c1,2 1,4 1,6l0 3c1,2 1,4 1,6l0 3c0,2 0,4 0,6l0 3c0,2 0,3 0,5 0,1 0,3 0,4 0,2 0,3 -1,5 0,1 0,3 0,4 0,2 0,3 0,5 -1,1 -1,3 -1,4 0,1 -1,3 -1,4 0,2 0,4 -1,5l0 2c-2,8 -1,16 4,23 4,7 11,12 19,13 2,1 4,1 6,1 6,0 12,-2 16,-5 7,-4 12,-10 13,-18l1 -3c1,-3 1,-5 1,-7 1,-2 1,-4 1,-5 1,-3 1,-5 1,-7 1,-2 1,-3 1,-5 0,-2 0,-4 1,-7 0,-2 0,-3 0,-5 0,-2 0,-4 0,-6 0,-2 0,-4 0,-6 0,-2 0,-4 0,-6z"/>
    <path id="Fill-13" class="fil2" d="M397 66c-17,0 -31,13 -31,30 0,17 14,31 31,31 16,0 30,-14 30,-31 0,-17 -14,-30 -30,-30z"/>
    <path id="Fill-15" class="fil2" d="M329 31c-6,-1 -11,-2 -17,-3 -1,0 -2,0 -4,-1 0,0 0,0 0,0 -1,0 -1,0 -2,0 -4,0 -9,-1 -13,-1 -1,0 -1,0 -1,0 0,0 0,0 0,0 0,0 -1,0 -1,0 0,0 -1,0 -1,0 -4,-1 -8,-1 -11,-1 -1,0 -2,0 -3,0 -3,0 -7,0 -10,0 -2,0 -3,0 -4,1 -3,0 -6,0 -9,0 -2,0 -3,0 -5,1 0,0 -1,0 -1,0 -2,0 -4,0 -6,1 -2,0 -4,0 -6,1 -1,0 -2,0 -3,0 -1,0 -2,1 -4,1 -2,0 -4,1 -6,1 -1,0 -3,1 -4,1 -1,0 -1,0 -2,0 0,1 -1,1 -2,1 -1,0 -3,1 -5,1 -2,1 -3,1 -5,2l-2 1c-1,0 -2,0 -3,1 -1,0 -2,0 -3,0 -1,1 -3,2 -4,2 -1,0 -2,1 -3,1l0 0c-1,0 -2,1 -2,1 0,0 -1,0 -1,0 0,1 -1,1 -2,1l-2 1c-2,1 -3,1 -4,2l-1 0c-3,1 -5,2 -7,3l-1 1c0,0 0,0 0,0l-2 1c-1,0 -2,1 -3,2l-2 0c-2,1 -4,3 -6,4l-1 0c-1,1 -2,1 -3,2 0,0 -1,1 -1,1 -1,0 -2,1 -2,1l-3 2 -3 2 0 0c0,0 0,0 0,0l-4 3 -3 1c-1,1 -2,2 -4,3 0,1 -1,1 -1,1l-1 1c0,0 -1,0 -1,1l-2 1c-1,1 -2,2 -3,3l-3 2 0 0c-1,1 -1,1 -1,1l-2 1c-1,2 -3,3 -5,5 0,0 0,0 -1,0l-1 2c0,0 0,0 0,0l-1 1c-2,1 -3,3 -5,5 0,0 -1,0 -1,1l-1 1c-3,2 -5,4 -7,7l-1 1c0,1 -1,1 -2,2 0,0 0,0 0,0l0 0c-1,2 -3,3 -4,5 0,0 0,0 0,0 0,1 -1,1 -1,1l0 1c-1,0 -1,0 -1,1 -1,0 -1,1 -2,2l0 0c-1,2 -2,3 -3,5l-1 0 0 1c-1,1 -2,2 -2,3l-1 0c-1,1 -1,2 -2,4l-1 1 -1 2 -2 2 -2 4 -2 2 0 2c0,0 0,0 0,0l-2 2 -1 2c-1,1 -1,2 -1,3 0,0 0,0 0,0l-2 2c0,0 0,0 0,0 0,0 0,0 0,0l-1 3 -1 2c-1,1 -1,2 -2,3 0,1 -1,2 -1,3 0,0 0,1 -1,1l-1 2c0,1 0,2 -1,3 0,0 -1,1 -1,2l-1 3c0,1 -1,1 -1,2 0,0 0,0 0,1 0,1 -1,2 -1,3 -1,1 -2,3 -2,5 0,0 -1,1 -1,1l0 0c0,0 0,0 0,0l0 0 -1 3c0,2 -1,4 -1,6 -1,2 -2,4 -2,6l-1 3c0,1 -1,2 -1,3l0 0 0 1 0 1 -1 2 0 2c-1,1 -1,3 -1,4 0,0 0,1 -1,2l0 1 0 1c0,1 0,1 0,1l-1 3c0,1 0,3 0,4l-1 3 0 1c0,0 0,1 0,1l0 3c-1,1 -1,2 -1,3 0,2 0,3 0,4l0 1c0,0 0,0 0,1 -1,1 -1,2 -1,3 0,1 0,1 0,2 0,1 0,3 0,4l0 2c0,0 0,0 0,0l0 0 0 1c0,1 0,1 0,1 0,0 0,0 0,0l0 1c0,0 0,1 0,1 0,1 0,1 0,2 0,1 0,2 0,4 0,1 0,2 0,4 0,0 0,0 0,1l0 2c0,0 0,0 0,0 0,2 0,3 0,4 0,2 0,3 0,5 0,2 1,4 1,7 0,1 0,2 0,3 0,0 0,1 0,1 0,2 1,3 1,5 0,0 0,0 0,1 0,0 0,1 0,1 0,1 0,1 0,2 1,1 1,1 1,2 0,2 1,4 1,6 0,0 0,1 0,1 0,0 0,0 0,0 0,1 0,1 0,1 1,1 1,2 1,4 0,2 1,4 1,6 1,1 1,3 2,5 0,2 1,4 2,7l1 3c0,0 0,0 0,1l0 0c1,2 1,4 2,6l1 3c0,0 0,1 0,1 1,1 1,2 1,2 0,1 0,1 0,1l1 0c0,2 1,4 2,5l0 2c1,2 2,5 3,7 1,0 1,1 1,1 0,1 1,2 1,3 1,1 1,1 1,1l0 1c0,0 0,0 0,0l1 2c1,2 2,4 3,6 1,2 2,4 3,5l1 2c1,1 1,2 1,2 1,1 1,1 1,2 1,0 1,1 2,2 1,1 2,3 2,4l1 1c1,1 1,2 2,3 0,0 0,0 0,0l1 2c1,1 2,3 3,4 1,1 2,2 3,3 0,1 0,1 0,1 0,0 0,0 0,0 0,0 1,1 1,2 1,1 2,2 3,3 1,1 2,3 3,4l0 0c0,0 0,0 0,0 1,1 1,1 2,2 1,1 1,2 2,3 1,1 1,1 2,2 1,1 1,1 2,2 0,0 1,1 1,1 0,0 0,1 0,1l1 0c0,1 1,1 1,1 0,0 0,1 0,1l1 1c1,0 1,1 1,1 0,0 1,0 1,0 0,0 0,0 0,0 0,0 0,0 0,0 1,1 1,2 2,3 0,0 1,0 1,1 0,0 0,0 1,0 0,0 0,0 0,0 0,1 1,1 1,2 0,0 0,0 1,0 0,1 1,1 2,2 0,0 0,0 0,1 1,0 2,1 3,2l3 2c0,1 1,1 1,2 1,0 1,1 2,1 0,0 0,0 0,1 1,0 2,1 2,1 1,1 2,1 2,2 1,0 1,1 2,1l3 2c1,1 1,1 2,2 0,0 0,0 1,0 0,1 0,1 1,1 0,1 1,1 2,2 1,1 2,2 4,2 0,1 1,1 1,2 1,0 1,0 1,0l1 1c1,0 2,1 3,1 1,1 2,2 3,3 1,0 2,1 2,1 1,0 1,0 1,0 0,1 1,1 1,1 1,1 2,1 3,2l4 2c0,0 1,1 2,1l0 0c0,0 0,0 0,0 2,1 3,1 4,2 1,1 3,1 4,2l2 1c1,0 1,1 1,1 1,0 1,0 2,1l1 0c2,1 4,2 5,2 1,1 2,1 2,1 1,0 1,0 1,0l0 0c0,1 1,1 2,1 0,0 2,1 2,1 0,0 4,2 4,2 1,0 2,0 2,0 1,0 1,1 1,1l0 0c1,0 2,1 3,1l2 0c2,1 3,1 5,2 1,0 2,1 4,1 0,0 0,0 1,0l1 1c0,0 0,0 0,0 2,0 4,1 6,1 3,1 6,2 9,2 0,0 1,1 1,1 2,0 4,0 6,1 2,0 4,1 7,1 0,0 1,0 2,0 1,0 1,1 2,1 1,0 2,0 3,0 3,0 7,1 10,1 1,0 2,0 3,0 0,0 1,0 1,0 1,0 2,0 2,0 2,1 4,1 5,1 3,0 5,0 7,0 1,0 1,0 2,0 0,0 0,0 1,0 0,0 1,0 1,0 1,0 2,0 3,0 2,0 4,0 6,0 0,0 1,0 2,-1 0,0 1,0 1,0 0,0 0,0 0,0 1,0 3,0 4,0 2,0 4,0 5,0 3,-1 5,-1 7,-1 2,0 3,0 5,-1 0,0 0,0 0,0 5,-1 10,-1 15,-3 17,-3 27,-19 23,-35 -3,-14 -15,-24 -29,-24 -2,0 -4,0 -6,1 -5,1 -10,1 -15,2 -2,0 -4,1 -6,1 -1,0 -2,0 -3,0 -2,0 -3,0 -5,0 -2,0 -4,1 -7,1 -1,0 -2,0 -3,0 -2,0 -4,0 -6,-1 -1,0 -1,0 -1,0 -1,0 -2,0 -2,0 -2,0 -4,0 -6,0 -2,0 -3,0 -5,-1 -2,0 -4,0 -6,0 -1,0 -2,-1 -3,-1l0 0c-3,0 -7,-1 -11,-2 0,0 0,0 0,0 -4,-1 -7,-2 -10,-3 -2,0 -3,-1 -5,-1 0,0 0,0 -1,0l0 0 0 0c-2,-1 -4,-2 -6,-3 -2,0 -4,-1 -5,-2 -1,0 -1,0 -1,0 -3,-1 -5,-2 -8,-3 -2,-1 -4,-2 -5,-3l-1 -1c-3,-1 -6,-3 -9,-4 -1,-1 -3,-2 -5,-3 0,-1 -1,-1 -1,-1 -3,-1 -5,-3 -7,-4 -2,-2 -4,-3 -6,-5 0,0 0,0 -1,-1l0 0c-1,0 -2,-1 -2,-2 -1,0 -2,-1 -3,-2 -3,-2 -5,-4 -8,-7 -2,-1 -3,-3 -5,-5 -2,-2 -4,-4 -6,-6 0,0 0,0 0,0 -6,-7 -12,-15 -17,-23 -1,-1 -1,-1 -1,-1l0 -1c-2,-2 -3,-4 -4,-6l-1 -1c0,-1 0,-1 -1,-2 0,0 0,0 0,-1 -1,-1 -2,-3 -3,-5l-1 -2 -1 -3c-1,-2 -2,-4 -3,-5l0 -2c0,0 -2,-4 -2,-5l-2 -5c0,0 0,0 0,-1 -1,-1 -1,-2 -2,-4 0,0 0,0 0,-1l0 0c-1,-2 -1,-3 -1,-5 -1,-1 -1,-2 -1,-3 -1,-1 -1,-2 -1,-3 0,-2 -1,-4 -1,-6 0,-1 -1,-1 -1,-2 0,-2 -1,-4 -1,-7 0,0 0,0 0,-1 -1,-5 -1,-10 -2,-16 0,-5 0,-11 0,-16 0,-1 0,-2 0,-4l0 0c0,-1 1,-3 1,-4 0,-2 0,-3 0,-4 0,-2 0,-3 0,-5 1,-6 2,-11 4,-17 0,-3 1,-5 2,-8 0,0 0,-1 0,-1 0,-2 1,-3 1,-4l1 -5 1 -1c1,-2 2,-5 3,-7l1 -5 1 -1c1,-3 3,-7 5,-11 1,-2 3,-5 4,-7 1,-2 2,-4 4,-6 5,-8 11,-16 17,-24 1,-1 2,-2 3,-3 2,-2 4,-4 7,-7 0,0 0,0 0,0 3,-3 6,-5 9,-8 1,-1 1,-1 2,-2 0,0 1,-1 1,-1 1,-1 2,-1 3,-2 1,-1 2,-1 3,-2 1,-1 2,-2 4,-3 1,-1 2,-2 3,-3 1,0 1,0 1,0 1,-1 2,-2 3,-2 1,-1 1,-1 2,-1 1,-1 2,-1 3,-2 1,-1 2,-1 3,-2 2,-1 4,-2 6,-3 1,-1 3,-2 5,-2 1,-1 3,-2 4,-3 1,0 1,0 2,0 3,-2 6,-3 9,-4 1,0 2,-1 3,-1 2,-1 4,-1 6,-2 1,0 2,-1 4,-1 1,-1 2,-1 4,-1 1,-1 2,-1 3,-1 2,-1 4,-1 6,-2 1,0 3,0 5,-1 3,0 5,0 8,-1 1,0 2,0 3,0 4,-1 7,-1 11,-1 3,0 7,-1 10,-1 1,0 1,0 1,0 4,0 7,1 11,1 0,0 1,0 2,0 3,0 6,0 9,1 2,0 3,0 5,1 4,0 9,1 13,2 0,0 1,0 2,0 7,1 14,0 20,-4 7,-4 12,-11 14,-19 2,-8 0,-16 -4,-23 -4,-6 -11,-11 -19,-13z"/>
   </g>
  </g>
 </g>
</svg>
