<?xml version="1.0" encoding="UTF-8"?>
<!DOCTYPE svg PUBLIC "-//W3C//DTD SVG 1.1//EN" "http://www.w3.org/Graphics/SVG/1.1/DTD/svg11.dtd">
<!-- Creator: CorelDRAW X8 -->
<svg xmlns="http://www.w3.org/2000/svg" xml:space="preserve" width="2015px" height="418px" version="1.1" style="shape-rendering:geometricPrecision; text-rendering:geometricPrecision; image-rendering:optimizeQuality; fill-rule:evenodd; clip-rule:evenodd"
viewBox="0 0 1712 355"
 xmlns:xlink="http://www.w3.org/1999/xlink">
 <defs>
  <style type="text/css">
   <![CDATA[
    .fil0 {fill:#002A6F}
    .fil1 {fill:#F4C325}
    .fil2 {fill:#002A6F;fill-rule:nonzero}
    .fil3 {fill:#F4C325;fill-rule:nonzero}
   ]]>
  </style>
 </defs>
 <g id="Camada_x0020_1">
  <metadata id="CorelCorpID_0Corel-Layer"/>
  <g id="_2120502392000">
   <g>
    <g>
     <path id="Fill-11" class="fil0" d="M309 269l-44 -43c-1,0 -1,-1 -1,-1 7,-14 12,-30 12,-47 0,-53 -44,-97 -97,-97 -54,0 -97,44 -97,97 0,54 43,97 97,97 17,0 34,-5 48,-13 1,0 1,0 1,1l45 43c10,10 26,10 36,0 11,-10 11,-27 0,-37l0 0zm-130 -34c-32,0 -57,-25 -57,-57 0,-31 25,-57 57,-57 31,0 57,26 57,57 0,32 -26,57 -57,57z"/>
    </g>
    <path id="Fill-12" class="fil1" d="M352 175c0,-2 0,-3 0,-5 0,-1 0,-2 0,-4 0,-1 0,-3 0,-5 -1,-1 -1,-2 -1,-3 0,-2 0,-4 -1,-6 0,-1 0,-1 0,-2 0,-2 -1,-4 -1,-6l0 -3c-1,-2 -1,-4 -2,-6l0 -2c-1,-2 -2,-4 -2,-6l-1 -2c0,-2 -1,-4 -2,-7l-1 -1c0,-2 -1,-5 -2,-7l-1 -1c-1,-2 -2,-4 -2,-7l-1 -1c-1,-2 -2,-4 -3,-6l-1 -2c-1,-2 -2,-4 -4,-6l0 -1c-4,-7 -11,-11 -19,-11 -4,0 -8,1 -12,4 -10,6 -13,19 -7,30l0 0c1,2 2,4 3,5l0 1c1,2 2,3 3,5l0 1c1,2 2,3 3,5l0 1c1,2 1,3 2,5l0 1c1,2 2,3 2,5l0 1c1,2 1,4 2,5l0 2c1,1 1,3 1,4l1 2c0,2 0,3 0,5l1 1c0,2 0,4 0,5l0 2c1,1 1,3 1,4l0 3c0,1 0,2 0,4l0 2c0,2 0,3 0,4 0,1 0,2 0,3 0,1 0,2 0,4 -1,1 -1,2 -1,3 0,1 0,2 0,3 0,1 0,2 -1,3 0,1 0,2 0,3 0,2 -1,3 -1,4l0 1c-1,6 0,12 3,17 3,5 8,9 14,10 1,0 3,0 4,0 5,0 9,-1 12,-3 5,-3 9,-8 10,-13l0 -3c1,-2 1,-3 1,-5 1,-1 1,-2 1,-4 0,-1 1,-3 1,-5 0,-1 0,-2 0,-3 0,-2 1,-4 1,-5 0,-2 0,-3 0,-4 0,-2 0,-3 0,-5 0,-1 0,-3 0,-4 0,-2 0,-3 0,-4z"/>
    <path id="Fill-13" class="fil1" d="M267 30c-13,0 -23,10 -23,22 0,12 10,22 23,22 12,0 22,-10 22,-22 0,-12 -10,-22 -22,-22z"/>
    <path id="Fill-15" class="fil1" d="M217 4c-4,-1 -8,-1 -12,-2 -1,0 -2,0 -3,0 0,0 0,0 -1,0 0,0 0,0 -1,-1 -3,0 -7,0 -10,-1 0,0 0,0 0,0 0,0 0,0 0,0 -1,0 -1,0 -1,0 0,0 -1,0 -1,0 -3,0 -5,0 -8,0 -1,0 -1,0 -2,0 -3,0 -5,0 -8,0 -1,0 -2,0 -3,0 -2,0 -4,1 -6,1 -1,0 -2,0 -4,0 0,0 0,0 0,0 -2,0 -3,1 -5,1 -1,0 -3,0 -4,0 -1,1 -2,1 -2,1 -1,0 -2,0 -3,0 -2,1 -3,1 -5,1 -1,1 -2,1 -3,1 0,0 0,0 -1,0 0,1 -1,1 -1,1 -2,0 -3,0 -4,1 -1,0 -3,1 -4,1l-2 0c0,1 -1,1 -2,1 0,0 -1,1 -2,1 -1,0 -2,1 -3,1 0,0 -1,0 -2,1l0 0c-1,0 -1,0 -2,0 0,0 0,1 0,1 0,0 -1,0 -2,0l-1 1c-1,0 -2,1 -3,1l-1 1c-2,0 -3,1 -5,2l0 0c-1,0 -1,0 -1,0l-1 1c-1,0 -2,1 -3,1l0 1c-2,0 -4,1 -5,2l-1 1c0,0 -1,0 -2,1 0,0 -1,0 -1,1 -1,0 -1,0 -2,0l-1 2 -3 1 0 0c0,0 0,0 0,0l-3 2 -2 1c-1,1 -2,2 -3,3 0,0 0,0 -1,0l0 1c0,0 -1,0 -1,0l-1 1c-1,1 -2,2 -3,2l-2 2 0 0c0,0 -1,1 -1,1l-1 1c-1,1 -2,2 -3,3 -1,0 -1,0 -1,0l-1 1c0,1 0,1 -1,1l0 0c-1,1 -2,3 -4,4 0,0 0,0 0,0l-1 1c-2,2 -4,4 -6,6l0 0c0,1 -1,1 -1,2 0,0 0,0 0,0l0 0c-1,1 -2,2 -3,3 0,1 0,1 -1,1 0,0 0,0 0,0l0 1c-1,0 -1,0 -1,0 0,1 -1,1 -1,2l0 0c-1,1 -2,2 -3,4l0 0 0 0c-1,1 -2,2 -2,3l0 0c-1,1 -1,2 -2,2l-1 2 -1 1 -1 1 -2 4 -1 1 0 1c0,0 0,0 0,0l-1 2 -1 2c0,0 -1,1 -1,1 0,0 0,0 0,0l-1 2c0,0 0,0 0,0 0,0 0,0 0,0l-1 2 -1 1c0,1 0,2 -1,3 0,0 -1,1 -1,2 0,0 0,0 0,1l-1 1c0,1 -1,1 -1,2 0,1 0,1 -1,2l-1 2c0,1 0,1 0,1 0,1 0,1 0,1 -1,1 -1,1 -1,2 -1,2 -1,3 -2,4 0,0 0,1 0,1l0 0c0,0 0,0 0,0l0 0 -1 2c0,1 -1,3 -1,4 -1,2 -1,3 -1,5l-1 2c0,1 0,1 0,2l-1 0 0 1 0 1 0 1 -1 2c0,1 0,2 0,3 0,0 0,0 0,1l-1 1 0 1c0,0 0,0 0,1l0 1c-1,1 -1,3 -1,4l0 1 0 2c0,0 0,0 0,0l-1 2c0,1 0,2 0,3 0,1 0,1 0,2l0 1c0,0 0,0 0,1 0,0 0,1 -1,2 0,1 0,1 0,2 0,1 0,2 0,3l0 1c0,0 0,0 0,0l0 0 0 1c0,0 0,0 0,1 0,0 0,0 0,0l0 0c0,0 0,1 0,1 0,1 0,1 0,1 0,1 0,2 0,3 0,1 0,2 0,3 0,0 0,1 0,1l0 2c0,0 0,0 0,0 0,1 0,2 0,3 0,1 0,2 0,3 1,2 1,3 1,5 0,1 0,2 0,2 0,1 0,1 0,1 0,1 0,2 1,3 0,1 0,1 0,1 0,1 0,1 0,1 0,1 0,1 0,1 0,1 0,2 0,3 1,1 1,2 1,3 0,1 0,1 0,1 0,1 0,1 0,1 0,0 0,0 0,0 1,1 1,2 1,3 0,1 1,3 1,4 0,2 1,3 1,4 0,2 1,3 1,5l1 2c0,1 0,1 0,1l0 0c1,2 1,3 2,4l0 3c1,0 1,0 1,1 0,0 0,1 0,1 1,0 1,0 1,1l0 0c0,1 1,3 1,4l1 1c0,2 1,3 2,5 0,0 0,1 0,1 1,1 1,2 1,2 1,1 1,1 1,1l0 0c0,0 0,0 0,0l1 2c0,1 1,3 2,4 1,2 1,3 2,4l1 2c0,0 1,1 1,1 0,0 0,1 0,1 1,1 1,1 2,2 0,1 1,2 1,3l1 0c0,1 1,2 1,3 0,0 0,0 1,0l0 1c1,1 2,2 2,3 1,1 2,2 2,3 0,0 0,0 0,0 0,0 0,0 0,0 1,0 1,1 1,1 1,1 2,2 2,3 1,1 2,2 3,2l0 1c0,0 0,0 0,0 0,0 0,1 1,1 0,1 1,2 2,2 0,1 1,1 1,2 0,0 1,1 1,1 1,1 1,1 1,1 0,0 0,0 1,1l0 0c0,0 0,0 1,1 0,0 0,0 0,0l1 1c0,0 0,0 0,1 1,0 1,0 1,0 0,0 0,0 0,0 0,0 0,0 0,0 0,0 1,1 1,2 1,0 1,0 1,1 0,0 0,0 0,0 1,0 1,0 1,0 0,0 0,0 1,1 0,0 0,0 0,0 1,1 1,1 2,2 0,0 0,0 0,0 1,0 1,1 2,2l2 2c0,0 1,0 1,1 1,0 1,0 1,1 0,0 1,0 1,0 0,0 1,1 1,1 1,0 1,1 2,1 0,0 0,1 1,1l2 2c0,0 1,1 1,1 0,0 1,0 1,0 0,1 0,1 1,1 0,0 1,1 1,1 1,1 2,1 3,2 0,0 1,1 1,1 1,0 1,0 1,0l1 1c0,0 1,1 1,1 1,1 2,1 3,2 1,0 1,0 2,1 0,0 0,0 0,0 0,0 1,0 1,0 1,1 1,1 2,1l3 2c0,0 1,1 1,1l1 0c0,0 0,0 0,0 1,1 1,1 2,2 1,0 2,1 4,1l1 1c0,0 1,0 1,0 0,0 1,1 1,1l1 0c1,1 2,1 4,2 0,0 1,0 1,0 0,1 0,1 0,1l1 0c0,0 0,0 1,0 0,0 2,1 2,1 0,0 3,1 3,1 0,0 1,0 1,1 0,0 0,0 1,0l0 0c1,0 1,0 2,1l2 0c1,0 2,1 3,1 1,0 2,1 3,1 0,0 0,0 1,0l0 0c0,0 0,0 0,0 2,1 3,1 5,2 2,0 4,1 6,1 1,0 1,0 1,0 2,1 3,1 5,1 1,1 3,1 5,1 0,0 1,0 1,0 1,0 1,0 1,1 1,0 2,0 3,0 2,0 5,0 7,1 1,0 2,0 3,0 0,0 0,0 0,0 1,0 1,0 2,0 1,0 2,0 3,0 2,0 4,0 6,0 0,0 0,0 1,0 0,0 0,0 0,0 1,0 1,0 2,0 0,0 1,0 2,0 1,0 2,0 4,0 0,0 1,0 2,0 0,0 0,0 0,0 0,0 0,0 0,0 1,0 2,0 3,0 2,0 3,-1 4,-1 2,0 3,0 5,0 1,0 2,-1 4,-1 0,0 0,0 0,0 4,0 7,-1 11,-2 12,-2 19,-14 17,-26 -2,-10 -11,-17 -22,-17 -1,0 -3,0 -4,0 -4,1 -7,1 -11,2 -2,0 -3,0 -4,0 -1,0 -2,0 -3,1 -1,0 -2,0 -4,0 -1,0 -3,0 -4,0 -1,0 -2,0 -2,0 -2,0 -4,0 -5,0 -1,0 -1,0 -1,0 -1,0 -1,0 -1,0 -2,0 -3,0 -5,-1 -1,0 -2,0 -3,0 -2,0 -3,0 -5,0 0,-1 -1,-1 -2,-1l0 0c-2,0 -5,-1 -8,-1 0,0 0,0 0,0 -3,-1 -5,-2 -8,-2 -1,-1 -2,-1 -3,-1 0,0 0,-1 -1,-1l0 0 0 0c-1,0 -3,-1 -5,-1 -1,-1 -2,-1 -3,-2 0,0 -1,0 -1,0 -2,-1 -4,-2 -6,-3 -1,0 -2,-1 -3,-1l-1 -1c-2,-1 -4,-2 -6,-3 -2,-1 -3,-2 -4,-2 -1,-1 -1,-1 -1,-1 -2,-1 -3,-2 -5,-3 -1,-1 -3,-2 -4,-3 -1,-1 -1,-1 -1,-1l0 0c-1,-1 -1,-1 -2,-2 -1,0 -1,-1 -2,-1 -2,-2 -4,-4 -6,-5 -1,-2 -2,-3 -3,-4 -2,-1 -3,-3 -5,-4 0,0 0,0 0,0 -4,-6 -9,-12 -13,-18 0,0 0,0 0,0l-1 -1c0,-1 -1,-3 -2,-5l-1 0c0,-1 0,-1 0,-1 0,-1 -1,-1 -1,-1 0,-1 -1,-2 -2,-4l0 -2 -1 -2c-1,-1 -2,-2 -2,-3l-1 -2c0,0 -1,-3 -1,-4l-1 -3c0,0 -1,0 -1,-1 0,-1 0,-2 -1,-3 0,0 0,0 0,0l0 -1c0,-1 -1,-2 -1,-3 0,-1 0,-2 -1,-3 0,0 0,-1 0,-2 0,-1 -1,-2 -1,-4 0,0 0,-1 0,-1 -1,-2 -1,-4 -1,-5 0,-1 0,-1 0,-1 -1,-4 -1,-8 -1,-12 -1,-4 -1,-8 -1,-12 0,-1 0,-2 1,-2l0 0c0,-2 0,-3 0,-4 0,-1 0,-2 0,-3 0,-1 0,-2 0,-3 1,-4 2,-9 3,-13 0,-2 1,-4 1,-6 0,0 0,0 0,-1 1,-1 1,-1 1,-2l1 -4 1 -1c0,-2 1,-3 2,-5l1 -3 0 -1c1,-3 3,-6 4,-8 1,-2 2,-4 3,-6 1,-1 2,-2 3,-4 3,-6 8,-12 12,-17 1,-1 2,-2 2,-2 2,-2 4,-4 5,-6 0,0 0,0 0,0 3,-2 5,-4 7,-6 1,0 1,-1 2,-1 0,0 0,-1 1,-1 0,0 1,-1 1,-1 1,-1 2,-1 3,-2 1,-1 2,-1 2,-2 1,-1 2,-1 3,-2 1,0 1,0 1,-1 1,0 2,-1 2,-1 1,0 1,0 1,-1 1,0 2,0 2,-1 1,0 2,-1 3,-1 1,-1 3,-2 4,-3 1,0 2,-1 4,-1 1,-1 2,-1 3,-2 0,0 1,0 1,-1 3,-1 5,-1 7,-2 1,-1 2,-1 2,-1 2,-1 3,-1 4,-1 1,-1 2,-1 3,-1 1,-1 2,-1 3,-1 1,0 2,-1 3,-1 1,0 2,0 4,-1 1,0 2,0 4,-1 2,0 4,0 5,0 1,-1 2,-1 3,-1 2,0 5,0 8,-1 2,0 5,0 7,0 1,0 1,0 1,0 3,0 5,0 8,1 0,0 1,0 1,0 3,0 5,0 7,0 1,0 3,1 4,1 3,0 6,1 9,2 1,0 1,0 2,0 5,1 10,0 15,-3 5,-4 8,-8 10,-14 1,-6 0,-12 -3,-17 -3,-5 -8,-8 -14,-10z"/>
   </g>
   <path class="fil2" d="M479 85l0 133c0,20 0,33 0,39 -1,5 -3,10 -6,15 -3,5 -8,8 -13,10 -6,1 -15,2 -26,2l-26 0 0 -35c3,1 5,1 7,1 3,0 6,-1 8,-3 2,-2 4,-4 4,-7 0,-2 0,-7 0,-15l0 -140 52 0z"/>
   <path id="1" class="fil2" d="M610 178l0 40c0,15 0,26 -2,33 -1,6 -4,13 -9,19 -5,6 -11,10 -19,13 -8,3 -16,4 -26,4 -11,0 -20,-1 -28,-3 -8,-3 -14,-6 -18,-11 -4,-5 -7,-11 -9,-18 -2,-7 -2,-17 -2,-31l0 -42c0,-15 1,-27 4,-36 4,-8 10,-15 18,-20 9,-5 20,-8 33,-8 11,0 21,2 29,5 8,3 14,8 18,13 4,5 7,11 9,16 2,6 2,15 2,26zm-49 -12c0,-8 -1,-14 -2,-16 0,-2 -2,-3 -5,-3 -3,0 -5,1 -6,3 -1,2 -2,8 -2,16l0 74c0,7 1,12 2,15 1,2 3,3 5,3 3,0 5,-1 6,-3 1,-2 2,-7 2,-14l0 -75z"/>
   <path id="2" class="fil2" d="M676 85l0 47c5,-5 9,-8 14,-11 5,-2 11,-3 17,-3 7,0 12,1 17,3 5,2 9,5 12,9 3,4 4,8 5,11 0,4 0,12 0,24l0 74c0,12 0,21 -2,26 -2,6 -5,11 -11,16 -6,4 -13,6 -21,6 -6,0 -12,-1 -17,-4 -5,-2 -9,-6 -14,-11l-3 12 -46 0 0 -199 49 0zm16 82c0,-8 -1,-14 -2,-16 -1,-3 -3,-4 -6,-4 -3,0 -5,1 -6,3 -1,3 -2,8 -2,17l0 71c0,8 1,14 2,17 1,2 3,3 6,3 3,0 5,-1 6,-4 1,-2 2,-8 2,-18l0 -69z"/>
   <path id="3" class="fil3" d="M759 85l52 0c15,0 25,1 33,3 8,2 13,6 17,10 4,4 6,9 8,15 1,6 2,15 2,28l0 17c0,13 -1,22 -4,28 -3,6 -8,10 -14,13 -7,3 -17,5 -28,5l-14 0 0 80 -52 0 0 -199zm52 34l0 51c2,0 3,0 4,0 5,0 8,-1 10,-4 2,-2 3,-7 3,-14l0 -17c0,-7 -2,-11 -4,-13 -2,-2 -6,-3 -13,-3z"/>
   <path id="4" class="fil3" d="M997 178l0 40c0,15 -1,26 -3,33 -1,6 -4,13 -9,19 -5,6 -11,10 -19,13 -7,3 -16,4 -26,4 -11,0 -20,-1 -28,-3 -7,-3 -13,-6 -18,-11 -4,-5 -7,-11 -9,-18 -1,-7 -2,-17 -2,-31l0 -42c0,-15 1,-27 5,-36 3,-8 9,-15 17,-20 9,-5 20,-8 33,-8 11,0 21,2 29,5 8,3 14,8 18,13 5,5 8,11 9,16 2,6 3,15 3,26zm-50 -12c0,-8 0,-14 -1,-16 -1,-2 -3,-3 -6,-3 -3,0 -5,1 -6,3 -1,2 -2,8 -2,16l0 74c0,7 1,12 2,15 1,2 3,3 6,3 3,0 5,-1 6,-3 1,-2 1,-7 1,-14l0 -75z"/>
   <path id="5" class="fil3" d="M1115 173l-44 0 0 -9c0,-7 -1,-12 -2,-14 0,-2 -3,-3 -6,-3 -3,0 -5,1 -6,3 -2,2 -2,4 -2,8 0,5 0,9 1,11 0,2 2,5 6,8 3,2 10,7 21,12 15,7 24,14 29,20 4,6 6,15 6,27 0,13 -1,23 -5,30 -3,7 -9,12 -17,16 -8,3 -18,5 -29,5 -13,0 -24,-2 -33,-6 -9,-4 -15,-9 -18,-16 -4,-6 -5,-17 -5,-30l0 -8 44 0 0 10c0,9 0,15 1,17 2,3 4,4 7,4 4,0 6,-1 7,-2 2,-2 2,-6 2,-12 0,-7 0,-12 -2,-14 -2,-2 -12,-8 -29,-18 -15,-8 -24,-15 -27,-22 -3,-7 -4,-15 -4,-24 0,-13 1,-23 5,-29 3,-6 9,-11 17,-14 8,-3 18,-5 29,-5 11,0 20,1 27,4 8,3 14,6 18,11 4,4 6,9 7,12 1,4 2,10 2,19l0 9z"/>
   <path id="6" class="fil3" d="M1183 85l0 26 -51 0 0 -26 51 0zm0 36l0 163 -51 0 0 -163 51 0z"/>
   <path id="7" class="fil3" d="M1253 99l0 26 14 0 0 26 -14 0 0 87c0,11 0,17 2,18 1,1 5,2 14,2l0 26 -20 0c-12,0 -20,0 -25,-1 -5,-1 -9,-3 -13,-7 -3,-3 -6,-7 -6,-11 -1,-5 -2,-15 -2,-31l0 -83 -10 0 0 -26 10 0 0 -26 50 0z"/>
   <path id="8" class="fil3" d="M1329 85l0 26 -52 0 0 -26 52 0zm0 36l0 163 -52 0 0 -163 52 0z"/>
   <path id="9" class="fil3" d="M1459 178l0 40c0,15 -1,26 -2,33 -2,6 -5,13 -10,19 -5,6 -11,10 -18,13 -8,3 -17,4 -27,4 -11,0 -20,-1 -28,-3 -7,-3 -13,-6 -17,-11 -5,-5 -8,-11 -9,-18 -2,-7 -3,-17 -3,-31l0 -42c0,-15 2,-27 5,-36 3,-8 9,-15 18,-20 8,-5 19,-8 32,-8 11,0 21,2 29,5 8,3 14,8 19,13 4,5 7,11 8,16 2,6 3,15 3,26zm-50 -12c0,-8 0,-14 -1,-16 -1,-2 -3,-3 -6,-3 -3,0 -5,1 -6,3 -1,2 -1,8 -1,16l0 74c0,7 0,12 1,15 1,2 3,3 6,3 3,0 5,-1 6,-3 1,-2 1,-7 1,-14l0 -75z"/>
   <path id="10" class="fil3" d="M1526 121l-1 15c4,-6 8,-10 13,-14 5,-3 11,-4 18,-4 9,0 16,2 21,6 6,4 9,9 11,15 1,6 2,16 2,31l0 114 -50 0 0 -113c0,-11 0,-18 -1,-20 -1,-3 -3,-4 -6,-4 -4,0 -6,1 -7,4 -1,3 -1,11 -1,23l0 110 -50 0 0 -163 51 0z"/>
   <path id="11" class="fil3" d="M1709 173l-44 0 0 -9c0,-7 -1,-12 -2,-14 0,-2 -3,-3 -6,-3 -3,0 -5,1 -6,3 -2,2 -2,4 -2,8 0,5 0,9 1,11 0,2 2,5 6,8 3,2 11,7 21,12 15,7 24,14 29,20 4,6 6,15 6,27 0,13 -1,23 -5,30 -3,7 -9,12 -17,16 -8,3 -18,5 -29,5 -13,0 -24,-2 -33,-6 -9,-4 -15,-9 -18,-16 -4,-6 -5,-17 -5,-30l0 -8 44 0 0 10c0,9 0,15 2,17 1,3 3,4 6,4 4,0 6,-1 7,-2 2,-2 3,-6 3,-12 0,-7 -1,-12 -3,-14 -2,-2 -12,-8 -29,-18 -15,-8 -24,-15 -27,-22 -3,-7 -4,-15 -4,-24 0,-13 1,-23 5,-29 3,-6 9,-11 17,-14 8,-3 18,-5 29,-5 11,0 20,1 27,4 8,3 14,6 18,11 4,4 6,9 7,12 1,4 2,10 2,19l0 9z"/>
  </g>
 </g>
</svg>
